<svg width="223" height="128" viewBox="0 0 223 128" fill="none" xmlns="http://www.w3.org/2000/svg">
<path d="M50.8491 86.8046C71.1688 124.422 103.364 131.341 123.633 126.75C144.787 121.956 161.407 105.17 166.474 90.9368C166.82 89.9681 180.294 101.956 189.968 95.0691C195.067 91.4373 188.586 78.54 183.058 76.7035C183.058 76.7035 210.237 81.754 214.844 70.7346C219.45 59.7152 200.102 55.1238 202.406 54.6647C212.135 52.7271 229.953 33.0391 218.068 27.1162C198.72 17.4743 168.317 36.299 168.317 36.299C163.019 15.1694 135.845 -0.744469 113.038 0.0268883C89.7702 0.81202 57.2984 11.5054 47.6245 52.369C47.5969 52.4884 47.56 52.6399 47.4311 52.7317C43.9393 55.1238 12.0665 64.387 0.015625 67.5C-0.960971 67.7525 44.3999 84.0497 50.5866 86.4235C50.7432 86.4832 50.78 86.6806 50.8491 86.8046Z" fill="white"/>
</svg>
